Gait_lateral_06_analogdata.mot
version=1
nRows=54
nColumns=19
inDegrees=yes
endheader
time	1_ground_force_vx	1_ground_force_vy	1_ground_force_vz	1_ground_force_px	1_ground_force_py	1_ground_force_pz	1_ground_torque_x	1_ground_torque_y	1_ground_torque_z	2_ground_force_vx	2_ground_force_vy	2_ground_force_vz	2_ground_force_px	2_ground_force_py	2_ground_force_pz	2_ground_torque_x	2_ground_torque_y	2_ground_torque_z
0.480000	-22.866009	527.865845	-13.656380	-0.137746	0.000000	-0.408823	0.014770	-0.340975	0.008821	0.000000	0.000000	-0.000000	-0.200000	0.000000	0.302000	0.000000	0.000000	-0.000000
0.481000	-22.509666	522.617004	-13.037096	-0.137273	0.000000	-0.409630	0.026081	-0.605533	0.015105	0.000000	0.000000	-0.000000	-0.200000	0.000000	0.302000	0.000000	0.000000	-0.000000
0.482000	-23.222353	519.467712	-12.063934	-0.136962	0.000000	-0.410999	0.027752	-0.620793	0.014417	0.000000	0.000000	-0.000000	-0.200000	0.000000	0.302000	0.000000	0.000000	-0.000000
0.483000	-23.756869	513.169128	-11.090772	-0.136259	0.000000	-0.410657	0.030360	-0.655807	0.014174	0.000000	0.000000	-0.000000	-0.200000	0.000000	0.302000	0.000000	0.000000	-0.000000
0.484000	-21.796980	520.167542	-9.675265	-0.136821	0.000000	-0.407874	0.014973	-0.357327	0.006646	0.000000	0.000000	-0.000000	-0.200000	0.000000	0.302000	0.000000	0.000000	-0.000000
0.485000	-20.817036	525.066467	-11.798526	-0.137203	0.000000	-0.406784	0.012735	-0.321218	0.007218	0.000000	0.000000	-0.000000	-0.200000	0.000000	0.302000	0.000000	0.000000	-0.000000
0.486000	-22.598751	522.267090	-11.533119	-0.137085	0.000000	-0.407425	0.022904	-0.529332	0.011689	0.000000	0.000000	-0.000000	-0.200000	0.000000	0.302000	0.000000	0.000000	-0.000000
0.487000	-23.311438	520.517517	-11.798527	-0.137235	0.000000	-0.407147	0.034205	-0.763768	0.017312	0.000000	0.000000	-0.000000	-0.200000	0.000000	0.302000	0.000000	0.000000	-0.000000
0.488000	-22.509667	524.366638	-11.002303	-0.136788	0.000000	-0.405399	0.033494	-0.780242	0.016371	0.000000	0.000000	-0.000000	-0.200000	0.000000	0.302000	0.000000	0.000000	-0.000000
0.489000	-21.529722	520.517517	-11.090772	-0.135837	0.000000	-0.406344	0.039552	-0.956245	0.020375	0.000000	0.000000	-0.000000	-0.200000	0.000000	0.302000	0.000000	0.000000	-0.000000
0.490000	-21.886067	522.267090	-10.648427	-0.136107	0.000000	-0.407418	0.026464	-0.631509	0.012876	0.000000	0.000000	-0.000000	-0.200000	0.000000	0.302000	0.000000	0.000000	-0.000000
0.491000	-21.707894	520.867432	-10.294549	-0.136635	0.000000	-0.405419	0.024879	-0.596964	0.011799	0.000000	0.000000	-0.000000	-0.200000	0.000000	0.302000	0.000000	0.000000	-0.000000
0.492000	-22.064238	524.016724	-9.852203	-0.137432	0.000000	-0.404964	0.023211	-0.551252	0.010364	0.000000	0.000000	-0.000000	-0.200000	0.000000	0.302000	0.000000	0.000000	-0.000000
0.493000	-22.866009	524.366638	-10.559957	-0.137284	0.000000	-0.403277	0.045129	-1.034913	0.020842	0.525672	0.000000	0.799894	-0.268777	0.000000	0.325092	0.014187	-0.164448	0.021588
0.494000	-23.044182	528.215759	-10.029142	-0.137041	0.000000	-0.402365	0.037172	-0.852041	0.016178	0.000000	0.000000	-0.000000	-0.200000	0.000000	0.302000	0.000000	0.000000	-0.000000
0.495000	-22.598751	524.016724	-9.852203	-0.136750	0.000000	-0.404314	0.042765	-0.991619	0.018644	0.000000	0.000000	-0.000000	-0.200000	0.000000	0.302000	0.000000	0.000000	-0.000000
0.496000	-22.242409	520.517517	-9.940672	-0.136326	0.000000	-0.402986	0.043135	-1.009448	0.019278	0.000000	0.000000	-0.000000	-0.200000	0.000000	0.302000	0.000000	0.000000	-0.000000
0.497000	-21.975152	525.066467	-8.879041	-0.136502	0.000000	-0.402939	0.012361	-0.295341	0.004994	0.000000	0.000000	-0.000000	-0.200000	0.000000	0.302000	0.000000	0.000000	-0.000000
0.498000	-20.995207	520.867432	-9.675265	-0.138248	0.000000	-0.403746	0.024184	-0.599975	0.011145	0.000000	0.000000	-0.000000	-0.200000	0.000000	0.302000	0.000000	0.000000	-0.000000
0.499000	-21.173381	519.817627	-8.082818	-0.136924	0.000000	-0.400425	0.024082	-0.591237	0.009193	0.000000	0.000000	-0.000000	-0.200000	0.000000	0.302000	0.000000	0.000000	-0.000000
0.500000	-20.282521	525.766296	-8.702103	-0.137294	0.000000	-0.399983	0.026158	-0.678078	0.011223	0.000000	0.000000	-0.000000	-0.200000	0.000000	0.302000	0.000000	0.000000	-0.000000
0.501000	-21.173380	525.766296	-9.232918	-0.137718	0.000000	-0.400056	0.033644	-0.835427	0.014671	0.000000	0.000000	-0.000000	-0.200000	0.000000	0.302000	0.000000	0.000000	-0.000000
0.502000	-20.906123	526.466187	-8.613633	-0.137175	0.000000	-0.400181	0.035321	-0.889476	0.014553	0.000000	0.000000	-0.000000	-0.200000	0.000000	0.302000	0.000000	0.000000	-0.000000
0.503000	-21.351552	522.617004	-9.232918	-0.136153	0.000000	-0.400572	0.032848	-0.804021	0.014204	0.000000	0.000000	-0.000000	-0.200000	0.000000	0.302000	0.000000	0.000000	-0.000000
0.504000	-21.262465	520.867432	-7.817411	-0.137272	0.000000	-0.400896	0.040127	-0.982992	0.014753	0.000000	0.000000	-0.000000	-0.200000	0.000000	0.302000	0.000000	0.000000	-0.000000
0.505000	-20.638865	520.867432	-7.552003	-0.135796	0.000000	-0.399229	0.036356	-0.917528	0.013303	0.000000	0.000000	-0.000000	-0.200000	0.000000	0.302000	0.000000	0.000000	-0.000000
0.506000	-19.658921	519.467712	-6.755780	-0.135826	0.000000	-0.400399	0.026437	-0.698574	0.009085	0.000000	0.000000	-0.000000	-0.200000	0.000000	0.302000	0.000000	0.000000	-0.000000
0.507000	-19.213492	522.966919	-5.959557	-0.136953	0.000000	-0.399113	0.026480	-0.720758	0.008214	0.000000	0.000000	-0.000000	-0.200000	0.000000	0.302000	0.000000	0.000000	-0.000000
0.508000	-16.719090	522.617004	-6.932718	-0.136627	0.000000	-0.398673	0.015753	-0.492426	0.006532	0.000000	0.000000	-0.000000	-0.200000	0.000000	0.302000	0.000000	0.000000	-0.000000
0.509000	-19.213492	524.366638	-7.109656	-0.136567	0.000000	-0.398235	0.027180	-0.741775	0.010057	0.000000	0.000000	-0.000000	-0.200000	0.000000	0.302000	0.000000	0.000000	-0.000000
0.510000	-19.748008	523.316895	-6.136495	-0.137001	0.000000	-0.398590	0.036266	-0.961043	0.011269	0.000000	0.000000	-0.000000	-0.200000	0.000000	0.302000	0.000000	0.000000	-0.000000
0.511000	-19.480750	524.716553	-6.136495	-0.136336	0.000000	-0.397791	0.041903	-1.128675	0.013200	0.000000	0.000000	-0.000000	-0.200000	0.000000	0.302000	0.000000	0.000000	-0.000000
0.512000	-18.946235	522.617004	-6.224964	-0.135113	0.000000	-0.397363	0.058168	-1.604525	0.019112	0.000000	0.000000	-0.000000	-0.200000	0.000000	0.302000	0.000000	0.000000	-0.000000
0.513000	-18.500806	523.316895	-5.517210	-0.134834	0.000000	-0.398066	0.034933	-0.988115	0.010417	0.000000	0.000000	-0.000000	-0.200000	0.000000	0.302000	0.000000	0.000000	-0.000000
0.514000	-19.124406	515.968506	-5.163333	-0.135606	0.000000	-0.398477	0.038872	-1.048753	0.010495	0.000000	0.000000	-0.000000	-0.200000	0.000000	0.302000	0.000000	0.000000	-0.000000
0.515000	-18.946235	525.416382	-4.278641	-0.137035	0.000000	-0.395937	0.029807	-0.826616	0.006731	0.000000	0.000000	-0.000000	-0.200000	0.000000	0.302000	0.000000	0.000000	-0.000000
0.516000	-17.788119	522.966919	-5.605679	-0.136959	0.000000	-0.396021	0.037410	-1.099835	0.011789	0.703776	0.000000	0.622809	-0.232280	0.000000	0.369353	-0.000589	0.004802	-0.000521
0.517000	-18.678977	525.066467	-4.101703	-0.136093	0.000000	-0.395193	0.041031	-1.153369	0.009010	0.000000	0.000000	-0.000000	-0.200000	0.000000	0.302000	0.000000	0.000000	-0.000000
0.518000	-18.768064	522.617004	-4.367110	-0.135794	0.000000	-0.396428	0.041871	-1.165933	0.009743	0.000000	0.000000	-0.000000	-0.200000	0.000000	0.302000	0.000000	0.000000	-0.000000
0.519000	-18.500806	521.567261	-4.190172	-0.135457	0.000000	-0.395377	0.048677	-1.372269	0.011025	0.000000	0.000000	-0.000000	-0.200000	0.000000	0.302000	0.000000	0.000000	-0.000000
0.520000	-18.233549	527.515930	-2.774664	-0.136107	0.000000	-0.394314	0.042016	-1.215556	0.006394	0.000000	0.000000	-0.000000	-0.200000	0.000000	0.302000	0.000000	0.000000	-0.000000
0.521000	-17.966291	522.966919	-4.544049	-0.137513	0.000000	-0.395321	0.036196	-1.053607	0.009155	0.000000	0.000000	-0.000000	-0.200000	0.000000	0.302000	0.000000	0.000000	-0.000000
0.522000	-18.678977	524.366638	-3.393949	-0.136910	0.000000	-0.391908	0.040516	-1.137388	0.007362	0.000000	0.000000	-0.000000	-0.200000	0.000000	0.302000	0.000000	0.000000	-0.000000
0.523000	-18.144462	531.365112	-2.951603	-0.137326	0.000000	-0.391567	0.037230	-1.090304	0.006056	0.000000	0.000000	-0.000000	-0.200000	0.000000	0.302000	0.000000	0.000000	-0.000000
0.524000	-17.609948	528.565735	-4.986395	-0.136799	0.000000	-0.392560	0.043970	-1.319756	0.012450	0.000000	0.000000	-0.000000	-0.200000	0.000000	0.302000	0.000000	0.000000	-0.000000
0.525000	-19.569835	526.116272	-3.482418	-0.136151	0.000000	-0.392538	0.053065	-1.426602	0.009443	0.000000	0.000000	-0.000000	-0.200000	0.000000	0.302000	0.000000	0.000000	-0.000000
0.526000	-18.946235	525.066467	-3.128541	-0.135950	0.000000	-0.392038	0.045564	-1.262744	0.007524	0.000000	0.000000	-0.000000	-0.200000	0.000000	0.302000	0.000000	0.000000	-0.000000
0.527000	-18.857149	525.066467	-2.509257	-0.136715	0.000000	-0.391939	0.051545	-1.435239	0.006859	0.000000	0.000000	-0.000000	-0.200000	0.000000	0.302000	0.000000	0.000000	-0.000000
0.528000	-18.946235	524.016724	-1.447626	-0.135745	0.000000	-0.390903	0.048425	-1.339340	0.003700	0.000000	0.000000	-0.000000	-0.200000	0.000000	0.302000	0.000000	0.000000	-0.000000
0.529000	-17.788120	522.267090	-0.916810	-0.135807	0.000000	-0.392102	0.040322	-1.183869	0.002078	0.000000	0.000000	-0.000000	-0.200000	0.000000	0.302000	0.000000	0.000000	-0.000000
0.530000	-16.808176	522.617004	0.498697	-0.135495	0.000000	-0.391014	0.025650	-0.797532	-0.000761	0.000000	0.000000	-0.000000	-0.200000	0.000000	0.302000	0.000000	0.000000	-0.000000
0.531000	-14.937374	524.016724	-0.297525	-0.135739	0.000000	-0.390514	0.022856	-0.801822	0.000455	0.000000	0.000000	-0.000000	-0.200000	0.000000	0.302000	0.000000	0.000000	-0.000000
0.532000	-17.520862	527.166016	-0.916810	-0.136126	0.000000	-0.390632	0.042630	-1.282637	0.002231	0.000000	0.000000	-0.000000	-0.200000	0.000000	0.302000	0.000000	0.000000	-0.000000
0.533000	-17.788120	521.917175	-0.739872	-0.135343	0.000000	-0.391364	0.044619	-1.309154	0.001856	0.000000	0.000000	-0.000000	-0.200000	0.000000	0.302000	0.000000	0.000000	-0.000000
